# This file uses centimeters as units for non-parametric coordinates.

mtllib door_frame.mtl
g default
v 0.002800 4.193651 3.545656
v 0.657618 4.193651 3.545656
v 0.002800 4.780349 3.545656
v 0.657618 4.780349 3.545656
v 0.002800 4.780349 3.021042
v 0.657618 4.780349 3.021042
v 0.002800 5.158338 2.060576
v 0.657618 5.158338 2.060576
v 0.002800 5.158338 1.484905
v 0.657618 5.158338 1.484905
v 0.002800 4.780349 0.524454
v 0.657618 4.780349 0.524454
v 0.002800 4.780349 -0.000168
v 0.657618 4.780349 -0.000168
v 0.002800 4.193651 -0.000168
v 0.657618 4.193651 -0.000168
v 0.002800 4.193804 0.524454
v 0.657618 4.193804 0.524454
v 0.002800 4.533491 1.535342
v 0.657618 4.533491 1.535342
v 0.002800 4.533491 2.010139
v 0.657618 4.533491 2.010139
v 0.002800 4.193804 3.021038
v 0.657618 4.193804 3.021038
v 0.002800 0.003011 -0.000168
v 0.657618 0.003011 -0.000168
v 0.657618 0.002999 0.524454
v 0.002800 0.002999 0.524454
v 0.002800 0.002999 3.021038
v 0.657618 0.002999 3.021038
v 0.657618 0.003011 3.545656
v 0.002800 0.003011 3.545656
v 0.002800 4.193651 3.545656
v 0.657618 4.193651 3.545656
v 0.657618 4.780349 3.545656
v 0.002800 4.780349 3.545656
v 0.002800 4.780349 -0.000168
v 0.657618 4.780349 -0.000168
v 0.657618 4.193651 -0.000168
v 0.002800 4.193651 -0.000168
vt 0.265791 0.871819
vt 0.265791 0.978917
vt 0.431124 0.978917
vt 0.431125 0.871819
vt 0.508779 0.978917
vt 0.508779 0.871819
vt 0.266386 0.701544
vt 0.266386 0.626090
vt 0.326837 0.626090
vt 0.326837 0.701544
vt 0.437510 0.626090
vt 0.437510 0.701544
vt 0.503844 0.626090
vt 0.503844 0.701544
vt 0.674115 0.978917
vt 0.674115 0.871819
vt 0.675712 0.705722
vt 0.761873 0.705697
vt 0.761873 0.802053
vt 0.675712 0.802053
vt 0.509689 0.761510
vt 0.517973 0.864132
vt 0.431712 0.761510
vt 0.423428 0.864132
vt 0.265689 0.705722
vt 0.265688 0.802053
vt 0.179528 0.705697
vt 0.179528 0.802053
vt 0.761873 0.705697
vt 0.675712 0.705722
vt 0.675712 0.802053
vt 0.761873 0.802053
vt 0.509689 0.761510
vt 0.517973 0.864132
vt 0.431712 0.761510
vt 0.423428 0.864132
vt 0.265689 0.705722
vt 0.265688 0.802053
vt 0.179528 0.705697
vt 0.179528 0.802053
vt 0.675712 0.017450
vt 0.761873 0.017452
vt 0.761873 0.017452
vt 0.675712 0.017450
vt 0.179528 0.017452
vt 0.265689 0.017450
vt 0.265689 0.017450
vt 0.179528 0.017452
vt 0.767109 0.706333
vt 0.873659 0.706333
vt 0.873659 0.802841
vt 0.767109 0.802841
vt 0.767109 0.802841
vt 0.873659 0.802841
vt 0.873659 0.706333
vt 0.767109 0.706333
vt 0.767109 0.706333
vt 0.873659 0.706333
vt 0.873659 0.017002
vt 0.767109 0.017002
vt 0.873659 0.706333
vt 0.767109 0.706333
vt 0.767109 0.017002
vt 0.873659 0.017002
vt 0.873498 0.704475
vt 0.767486 0.704475
vt 0.767486 0.018594
vt 0.873498 0.018594
vt 0.767486 0.704475
vt 0.873498 0.704475
vt 0.873498 0.018594
vt 0.767486 0.018594
vt 0.614516 0.626090
vt 0.614516 0.701544
vt 0.674967 0.626090
vt 0.674967 0.701544
vn 0.000000 0.000000 1.000000
vn 0.000000 0.000000 1.000000
vn 0.000000 0.000000 1.000000
vn 0.000000 0.000000 1.000000
vn 0.000000 1.000000 0.000000
vn 0.000000 1.000000 0.000000
vn 0.000000 0.969102 0.246660
vn 0.000000 0.969102 0.246660
vn 0.000000 0.971035 0.238937
vn 0.000000 0.971035 0.238937
vn 0.000000 0.971034 -0.238939
vn 0.000000 0.971034 -0.238939
vn 0.000000 0.969102 -0.246661
vn 0.000000 0.969102 -0.246661
vn 0.000000 1.000000 0.000000
vn 0.000000 1.000000 0.000000
vn 0.000000 0.000000 -1.000000
vn 0.000000 0.000000 -1.000000
vn 0.000000 0.000000 -1.000000
vn 0.000000 0.000000 -1.000000
vn 0.000000 -0.947914 0.318527
vn 0.000000 -0.947914 0.318527
vn 0.000000 -0.974844 0.222889
vn 0.000000 -0.974844 0.222889
vn 0.000000 -0.974844 -0.222887
vn 0.000000 -0.974844 -0.222887
vn 0.000000 -0.947915 -0.318524
vn 0.000000 -0.947915 -0.318524
vn 1.000000 0.000000 0.000000
vn 1.000000 0.000000 0.000000
vn 1.000000 0.000000 0.000000
vn 1.000000 0.000000 0.000000
vn 1.000000 0.000000 0.000000
vn 1.000000 0.000000 0.000000
vn 1.000000 -0.000000 0.000000
vn 1.000000 -0.000000 0.000000
vn 1.000000 -0.000000 0.000000
vn 1.000000 -0.000000 0.000000
vn 1.000000 -0.000000 0.000000
vn 1.000000 -0.000000 0.000000
vn -1.000000 0.000000 0.000000
vn -1.000000 0.000000 0.000000
vn -1.000000 0.000000 0.000000
vn -1.000000 0.000000 0.000000
vn -1.000000 0.000000 0.000000
vn -1.000000 0.000000 0.000000
vn -1.000000 0.000000 0.000000
vn -1.000000 0.000000 0.000000
vn -1.000000 0.000000 0.000000
vn -1.000000 0.000000 0.000000
vn -1.000000 0.000000 0.000000
vn -1.000000 0.000000 0.000000
vn 0.000000 0.000000 -1.000000
vn 0.000000 0.000000 -1.000000
vn 0.000000 0.000000 -1.000000
vn 0.000000 0.000000 -1.000000
vn 1.000000 0.000000 0.000000
vn 1.000000 0.000000 0.000000
vn 0.000000 0.000000 1.000000
vn 0.000000 0.000000 1.000000
vn 0.000000 0.000000 1.000000
vn 0.000000 0.000000 1.000000
vn -1.000000 0.000000 0.000000
vn -1.000000 0.000000 0.000000
vn 0.000000 0.000000 -1.000000
vn 0.000000 0.000000 -1.000000
vn 0.000000 0.000000 -1.000000
vn 0.000000 0.000000 -1.000000
vn 1.000000 0.000000 0.000000
vn 1.000000 0.000000 0.000000
vn 0.000000 0.000000 1.000000
vn 0.000000 0.000000 1.000000
vn 0.000000 0.000000 1.000000
vn 0.000000 0.000000 1.000000
vn -1.000000 0.000000 0.000000
vn -1.000000 0.000000 0.000000
s off
g pCube6
usemtl initialShadingGroup
f 33/49/1 34/50/2 35/51/3 36/52/4
s 1
f 3/7/5 4/8/6 6/9/7 5/10/8
f 5/10/8 6/9/7 8/11/9 7/12/10
f 7/12/10 8/11/9 10/13/11 9/14/12
f 9/14/12 10/13/11 12/73/13 11/74/14
f 11/74/14 12/73/13 14/75/15 13/76/16
s off
f 37/53/17 38/54/18 39/55/19 40/56/20
s 2
f 17/1/21 18/2/22 20/3/23 19/4/24
f 19/4/24 20/3/23 22/5/25 21/6/26
f 21/6/26 22/5/25 24/15/27 23/16/28
s 3
f 18/17/29 16/18/30 14/19/31 12/20/32
f 20/21/33 18/17/29 12/20/32 10/22/34
f 22/23/35 20/21/33 10/22/34 8/24/36
f 24/25/37 22/23/35 8/24/36 6/26/38
f 2/27/39 24/25/37 6/26/38 4/28/40
s 4
f 15/29/41 17/30/42 11/31/43 13/32/44
f 17/30/42 19/33/45 9/34/46 11/31/43
f 19/33/45 21/35/47 7/36/48 9/34/46
f 21/35/47 23/37/49 5/38/50 7/36/48
f 23/37/49 1/39/51 3/40/52 5/38/50
s off
f 15/57/53 16/58/54 26/59/55 25/60/56
s 3
f 16/18/30 18/17/29 27/41/57 26/42/58
s off
f 18/65/59 17/66/60 28/67/61 27/68/62
s 4
f 17/30/42 15/29/41 25/43/63 28/44/64
s off
f 23/69/65 24/70/66 30/71/67 29/72/68
s 3
f 24/25/37 2/27/39 31/45/69 30/46/70
s off
f 2/61/71 1/62/72 32/63/73 31/64/74
s 4
f 1/39/51 23/37/49 29/47/75 32/48/76
