# This file uses centimeters as units for non-parametric coordinates.

mtllib pillar.mtl
g default
v 0.002362 -0.407230 -0.413739
v 0.426446 -0.407230 0.010346
v 0.002362 0.407230 -0.431242
v 0.450778 0.407230 0.010346
v 2.565955 -0.407230 -0.413738
v 2.141870 -0.407230 0.010347
v 2.117538 0.407230 0.010347
v 2.565955 0.407230 -0.431241
v 0.450778 0.407230 -2.188973
v 0.002362 0.407230 -1.747385
v 0.002362 -0.407230 -1.764889
v 0.426446 -0.407230 -2.188973
v 2.565955 0.407230 -1.747385
v 2.117538 0.407230 -2.188973
v 2.565955 -0.407230 -1.764889
v 2.141870 -0.407230 -2.188973
v 0.295195 0.407230 -0.665054
v 0.719404 0.407230 -0.240878
v 1.848913 0.407230 -0.240877
v 2.273120 0.407230 -0.665053
v 2.273120 0.407230 -1.513574
v 1.848913 0.407230 -1.937750
v 0.719404 0.407230 -1.937750
v 0.295195 0.407230 -1.513574
v 0.295195 12.510704 -0.664962
v 0.719280 12.510704 -0.240878
v 2.273120 12.510704 -0.664961
v 1.849037 12.510704 -0.240877
v 1.849037 12.510704 -1.937750
v 2.273120 12.510704 -1.513665
v 0.295195 12.510704 -1.513665
v 0.719280 12.510704 -1.937750
vt 0.439834 0.777410
vt 0.689834 0.777410
vt 0.689834 0.930998
vt 0.648478 0.979204
vt 0.481191 0.979204
vt 0.439834 0.930998
vt 0.439834 0.793233
vt 0.840458 0.988010
vt 0.752136 0.988011
vt 0.752136 0.082188
vt 0.840458 0.082188
vt 0.840459 0.988012
vt 0.481191 0.729204
vt 0.752136 0.988012
vt 0.752136 0.082206
vt 0.840458 0.082203
vt 0.879330 0.082201
vt 0.879326 0.988011
vt 0.975637 0.082192
vt 0.711344 0.988011
vt 0.711401 0.082199
vt 0.711331 0.988012
vt 0.879327 0.988010
vt 0.493437 0.730753
vt 0.689834 0.793233
vt 0.636232 0.980753
vt 0.439834 0.918272
vt 0.711459 0.015934
vt 0.711459 0.063597
vt 0.879321 0.063605
vt 0.752136 0.063596
vt 0.752136 0.015934
vt 0.840457 0.063601
vt 0.840457 0.015935
vt 0.840457 0.063600
vt 0.879322 0.063606
vt 0.711459 0.063608
vt 0.975637 0.015935
vt 0.879323 0.015935
vt 0.752136 0.063603
vt 0.752136 0.015935
vt 0.840457 0.015934
vt 0.493437 0.980753
vt 0.689834 0.918272
vt 0.636232 0.730753
vt 0.648478 0.729204
vt 0.975637 0.988010
vt 0.975637 0.082140
vt 0.879322 0.015934
vt 0.975637 0.015934
vt 0.879329 0.082180
vt 0.975637 0.063621
vt 0.711459 0.015935
vt 0.975637 0.063608
vt 0.711385 0.082192
vt 0.975637 0.988011
vn 1.000000 0.000000 0.000000
vn 1.000000 0.000000 0.000000
vn 1.000000 0.000000 0.000000
vn 1.000000 0.000000 0.000000
vn -1.000000 0.000000 0.000000
vn -1.000000 0.000000 0.000000
vn -1.000000 0.000000 0.000000
vn -1.000000 0.000000 0.000000
vn -0.707093 -0.000006 0.707120
vn -0.707093 -0.000006 0.707120
vn -0.707093 -0.000006 0.707120
vn -0.707093 -0.000006 0.707120
vn -0.000001 0.000000 1.000000
vn -0.000001 0.000000 1.000000
vn -0.000001 0.000000 1.000000
vn -0.000001 0.000000 1.000000
vn 0.000000 0.000000 -1.000000
vn 0.000000 0.000000 -1.000000
vn 0.000000 0.000000 -1.000000
vn 0.000000 0.000000 -1.000000
vn 0.000000 1.000000 0.000000
vn 0.000000 1.000000 0.000000
vn 0.000000 1.000000 0.000000
vn 0.000000 1.000000 0.000000
vn 0.707094 -0.000006 0.707120
vn 0.707094 -0.000006 0.707120
vn 0.707094 -0.000006 0.707120
vn 0.707094 -0.000006 0.707120
vn 0.707094 -0.000006 -0.707120
vn 0.707094 -0.000006 -0.707120
vn 0.707094 -0.000006 -0.707120
vn 0.707094 -0.000006 -0.707120
vn -0.707093 -0.000006 -0.707121
vn -0.707093 -0.000006 -0.707120
vn -0.707093 -0.000006 -0.707120
vn -0.707093 -0.000006 -0.707121
vn 0.000000 1.000000 0.000000
vn 0.000000 1.000000 0.000000
vn 0.000000 1.000000 0.000000
vn 0.000000 1.000000 0.000000
vn 0.000000 1.000000 0.000000
vn 0.000000 1.000000 0.000000
vn 0.000000 1.000000 0.000000
vn 0.000000 1.000000 0.000000
vn 0.000000 0.000000 -1.000000
vn 0.000000 0.000000 -1.000000
vn 0.000000 0.000000 -1.000000
vn 0.000000 0.000000 -1.000000
vn -0.704208 0.018146 -0.709762
vn -0.704208 0.018146 -0.709762
vn -0.704208 0.018146 -0.709762
vn -0.704208 0.018146 -0.709762
vn 0.704208 0.018146 -0.709762
vn 0.704208 0.018146 -0.709762
vn 0.704208 0.018146 -0.709762
vn 0.704208 0.018146 -0.709762
vn 0.000000 1.000000 0.000000
vn 0.000000 1.000000 0.000000
vn 0.000000 1.000000 0.000000
vn 0.000000 1.000000 0.000000
vn -0.000000 1.000000 -0.000000
vn -0.000000 1.000000 -0.000000
vn 0.000000 1.000000 -0.000000
vn 0.000000 1.000000 0.000000
vn 0.000000 -1.000000 0.000000
vn 0.000000 -1.000000 0.000000
vn 0.000000 -1.000000 0.000000
vn 0.000000 -1.000000 0.000000
vn -0.000000 1.000000 -0.000000
vn -0.000000 1.000000 -0.000000
vn 0.000000 1.000000 0.000000
vn 0.000000 1.000000 0.000000
vn 0.000000 1.000000 0.000000
vn 0.000000 1.000000 0.000000
vn -0.000001 -0.000000 1.000000
vn -0.000001 -0.000000 1.000000
vn -0.000001 -0.000000 1.000000
vn -0.000001 -0.000000 1.000000
vn 1.000000 0.000000 0.000000
vn 1.000000 0.000000 0.000000
vn 1.000000 0.000000 0.000000
vn 1.000000 0.000000 0.000000
vn -1.000000 -0.000000 0.000000
vn -1.000000 -0.000000 0.000000
vn -1.000000 -0.000000 0.000000
vn -1.000000 -0.000000 0.000000
vn 0.000000 -1.000000 0.000000
vn 0.000000 -1.000000 0.000000
vn 0.000000 -1.000000 0.000000
vn 0.000000 -1.000000 0.000000
vn -0.704208 0.018146 0.709762
vn -0.704208 0.018146 0.709762
vn -0.704208 0.018146 0.709762
vn -0.704208 0.018146 0.709762
vn 0.704208 0.018146 0.709762
vn 0.704208 0.018146 0.709762
vn 0.704208 0.018146 0.709762
vn 0.704208 0.018146 0.709762
vn 0.000000 1.000000 -0.000000
vn 0.000000 1.000000 -0.000000
vn 0.000000 -1.000000 0.000000
vn 0.000000 -1.000000 0.000000
vn 0.000000 -1.000000 0.000000
vn 0.000000 -1.000000 0.000000
s off
g pCube5
usemtl initialShadingGroup
f 30/8/1 27/9/2 20/10/3 21/11/4
f 25/12/5 31/14/6 24/15/7 17/16/8
f 25/12/9 17/16/10 18/17/11 26/18/12
f 19/19/13 28/56/14 26/18/15 18/17/16
f 23/48/17 32/47/18 29/23/19 22/51/20
f 26/24/21 28/45/22 29/26/23 32/43/24
f 27/9/25 28/20/26 19/55/27 20/10/28
f 29/23/29 30/8/30 21/11/31 22/51/32
f 31/14/33 32/22/34 23/21/35 24/15/36
f 30/44/37 29/26/38 28/45/39 27/25/40
f 25/7/41 26/24/42 32/43/43 31/27/44
f 16/49/45 12/50/46 9/52/47 14/30/48
f 10/31/49 9/29/50 12/28/51 11/32/52
f 16/49/53 14/30/54 13/33/55 15/34/56
s 1
f 9/52/57 23/48/58 22/51/59 14/30/60
f 9/29/57 10/31/61 24/15/62 23/21/58
f 21/11/63 13/33/64 14/30/60 22/51/59
s off
f 15/2/65 11/1/66 12/13/67 16/46/68
s 1
f 17/16/69 3/35/70 4/36/71 18/17/72
f 7/54/73 19/19/74 18/17/72 4/36/71
s off
f 6/38/75 7/54/76 4/36/77 2/39/78
f 15/34/79 13/33/80 8/40/81 5/41/82
f 1/42/83 3/35/84 10/31/85 11/32/86
s 1
f 3/35/70 17/16/69 24/15/62 10/31/61
s off
f 1/6/87 11/1/88 15/2/89 5/3/90
f 3/35/91 1/42/92 2/39/93 4/36/94
f 6/53/95 5/41/96 8/40/97 7/37/98
s 1
f 8/40/99 13/33/64 21/11/63 20/10/100
f 7/37/73 8/40/99 20/10/100 19/55/74
s off
f 1/6/101 5/3/102 6/4/103 2/5/104
