# This file uses centimeters as units for non-parametric coordinates.

mtllib table.mtl
g default
v 0.945693 0.193728 -1.945272
v 1.054307 0.193728 -1.945272
v 0.830532 2.055489 -1.829220
v 1.169468 2.055489 -1.829220
v 0.830532 2.055489 -2.170780
v 1.169468 2.055489 -2.170780
v 0.945693 0.193728 -2.054728
v 1.054307 0.193728 -2.054728
v -1.708898 2.017240 2.103708
v -0.854534 2.017240 2.958071
v -1.708898 2.278087 2.103708
v -0.854534 2.278087 2.958071
v 1.708898 2.017240 2.103708
v 0.854534 2.017240 2.958071
v 1.708898 2.278087 2.103708
v 0.854534 2.278087 2.958071
v -1.708898 2.278087 -2.103708
v -0.854534 2.278087 -2.958071
v -1.708898 2.017240 -2.103708
v -0.854534 2.017240 -2.958071
v 0.854534 2.278087 -2.958071
v 1.708898 2.278087 -2.103708
v 1.708898 2.017240 -2.103708
v 0.854534 2.017240 -2.958071
v -1.054307 0.193728 2.054728
v -0.945693 0.193728 2.054728
v -1.169468 2.055489 2.170780
v -0.830532 2.055489 2.170780
v -1.169468 2.055489 1.829220
v -0.830532 2.055489 1.829220
v -1.054307 0.193728 1.945273
v -0.945693 0.193728 1.945273
v 0.945693 0.193728 2.054728
v 1.054307 0.193728 2.054728
v 0.830532 2.055489 2.170780
v 1.169468 2.055489 2.170780
v 0.830532 2.055489 1.829220
v 1.169468 2.055489 1.829220
v 0.945693 0.193728 1.945273
v 1.054307 0.193728 1.945273
v -1.054307 0.193728 -1.945272
v -0.945693 0.193728 -1.945272
v -1.169468 2.055489 -1.829220
v -0.830532 2.055489 -1.829220
v -1.169468 2.055489 -2.170780
v -0.830532 2.055489 -2.170780
v -1.054307 0.193728 -2.054728
v -0.945693 0.193728 -2.054728
vt 0.696591 0.642238
vt 0.696591 0.681151
vt 0.029583 0.722409
vt 0.029583 0.600980
vt 0.029583 0.600980
vt 0.029583 0.722409
vt 0.132023 0.625422
vt 0.132023 0.703263
vt 0.054182 0.625422
vt 0.054182 0.703263
vt 0.696903 0.642890
vt 0.696903 0.682104
vt 0.029895 0.723682
vt 0.029895 0.601312
vt 0.696903 0.682104
vt 0.696903 0.642890
vt 0.029895 0.601312
vt 0.029895 0.723682
vt 0.696591 0.681151
vt 0.696591 0.642238
vt 0.021141 0.410834
vt 0.061852 0.410833
vt 0.061852 0.144096
vt 0.021141 0.144096
vt 0.060118 0.406416
vt 0.060118 0.145920
vt 0.190341 0.015697
vt 0.190340 0.536639
vt 0.961858 0.406416
vt 0.831636 0.536639
vt 0.831636 0.015697
vt 0.961858 0.145920
vt 0.021141 0.144096
vt 0.061852 0.144096
vt 0.061852 0.410833
vt 0.021141 0.410834
vt 0.820427 0.545405
vt 0.820427 0.583861
vt 0.200136 0.583861
vt 0.200136 0.545405
vt 0.200136 0.545405
vt 0.200136 0.583861
vt 0.820427 0.583861
vt 0.820427 0.545405
vt 0.831636 0.015697
vt 0.190341 0.015697
vt 0.190340 0.536639
vt 0.831636 0.536639
vt 0.989235 0.583861
vt 0.989235 0.545404
vt 0.989235 0.583861
vt 0.989235 0.545404
vt 0.031328 0.545405
vt 0.031328 0.583861
vt 0.031328 0.545405
vt 0.031328 0.583861
vt 0.060118 0.406416
vt 0.060118 0.145920
vt 0.961858 0.406416
vt 0.961858 0.145920
vt 0.696591 0.642238
vt 0.696591 0.681151
vt 0.029583 0.722409
vt 0.029583 0.600980
vt 0.029583 0.600980
vt 0.029583 0.722409
vt 0.696591 0.681151
vt 0.696591 0.642238
vt 0.132023 0.625422
vt 0.132023 0.703263
vt 0.054182 0.703263
vt 0.054182 0.625422
vt 0.696903 0.642890
vt 0.696903 0.682104
vt 0.029895 0.723682
vt 0.029895 0.601312
vt 0.696903 0.682104
vt 0.696903 0.642890
vt 0.029895 0.601312
vt 0.029895 0.723682
vt 0.696591 0.642238
vt 0.696591 0.681151
vt 0.029583 0.722409
vt 0.029583 0.600980
vt 0.029583 0.600980
vt 0.029583 0.722409
vt 0.696591 0.681151
vt 0.696591 0.642238
vt 0.132023 0.625422
vt 0.132023 0.703263
vt 0.054182 0.703263
vt 0.054182 0.625422
vt 0.696903 0.642890
vt 0.696903 0.682104
vt 0.029895 0.723682
vt 0.029895 0.601312
vt 0.696903 0.682104
vt 0.696903 0.642890
vt 0.029895 0.601312
vt 0.029895 0.723682
vt 0.696591 0.642238
vt 0.696591 0.681151
vt 0.029583 0.722409
vt 0.029583 0.600980
vt 0.029583 0.600980
vt 0.029583 0.722409
vt 0.696591 0.681151
vt 0.696591 0.642238
vt 0.132023 0.625422
vt 0.132023 0.703263
vt 0.054182 0.703263
vt 0.054182 0.625422
vt 0.696903 0.642890
vt 0.696903 0.682104
vt 0.029895 0.723682
vt 0.029895 0.601312
vt 0.696903 0.682104
vt 0.696903 0.642890
vt 0.029895 0.601312
vt 0.029895 0.723682
vn 0.000000 -0.062214 0.998063
vn 0.000000 -0.062214 0.998063
vn 0.000000 -0.062214 0.998063
vn 0.000000 -0.062214 0.998063
vn 0.000000 -0.062214 -0.998063
vn 0.000000 -0.062214 -0.998063
vn 0.000000 -0.062214 -0.998063
vn 0.000000 -0.062214 -0.998063
vn 0.000000 -1.000000 0.000000
vn 0.000000 -1.000000 0.000000
vn 0.000000 -1.000000 0.000000
vn 0.000000 -1.000000 0.000000
vn 0.998092 -0.061738 0.000000
vn 0.998092 -0.061738 0.000000
vn 0.998092 -0.061738 0.000000
vn 0.998092 -0.061738 0.000000
vn -0.998092 -0.061738 0.000000
vn -0.998092 -0.061738 0.000000
vn -0.998092 -0.061738 0.000000
vn -0.998092 -0.061738 0.000000
vn 0.000000 0.000000 -1.000000
vn 0.000000 0.000000 -1.000000
vn 0.000000 0.000000 -1.000000
vn 0.000000 0.000000 -1.000000
vn 0.000000 1.000000 0.000000
vn 0.000000 1.000000 0.000000
vn 0.000000 1.000000 0.000000
vn 0.000000 1.000000 0.000000
vn 0.000000 1.000000 0.000000
vn 0.000000 1.000000 0.000000
vn 0.000000 1.000000 0.000000
vn 0.000000 1.000000 0.000000
vn 0.000000 0.000000 1.000000
vn 0.000000 0.000000 1.000000
vn 0.000000 0.000000 1.000000
vn 0.000000 0.000000 1.000000
vn 1.000000 0.000000 0.000000
vn 1.000000 0.000000 0.000000
vn 1.000000 0.000000 0.000000
vn 1.000000 0.000000 0.000000
vn -1.000000 0.000000 0.000000
vn -1.000000 0.000000 0.000000
vn -1.000000 0.000000 0.000000
vn -1.000000 0.000000 0.000000
vn 0.000000 1.000000 0.000000
vn 0.000000 1.000000 0.000000
vn 0.000000 1.000000 0.000000
vn 0.000000 1.000000 0.000000
vn 0.000000 -1.000000 0.000000
vn 0.000000 -1.000000 0.000000
vn 0.000000 -1.000000 0.000000
vn 0.000000 -1.000000 0.000000
vn -0.707107 0.000000 0.707107
vn -0.707107 0.000000 0.707107
vn -0.707107 0.000000 0.707107
vn -0.707107 0.000000 0.707107
vn 0.707107 0.000000 0.707107
vn 0.707107 0.000000 0.707107
vn 0.707107 0.000000 0.707107
vn 0.707107 0.000000 0.707107
vn -0.707107 0.000000 -0.707107
vn -0.707107 0.000000 -0.707107
vn -0.707107 0.000000 -0.707107
vn -0.707107 0.000000 -0.707107
vn 0.707107 0.000000 -0.707107
vn 0.707107 0.000000 -0.707107
vn 0.707107 0.000000 -0.707107
vn 0.707107 0.000000 -0.707107
vn 0.000000 -1.000000 0.000000
vn 0.000000 -1.000000 0.000000
vn 0.000000 -1.000000 0.000000
vn 0.000000 -1.000000 0.000000
vn 0.000000 -1.000000 0.000000
vn 0.000000 -1.000000 0.000000
vn 0.000000 -1.000000 0.000000
vn 0.000000 -1.000000 0.000000
vn 0.000000 -0.062214 0.998063
vn 0.000000 -0.062214 0.998063
vn 0.000000 -0.062214 0.998063
vn 0.000000 -0.062214 0.998063
vn 0.000000 -0.062214 -0.998063
vn 0.000000 -0.062214 -0.998063
vn 0.000000 -0.062214 -0.998063
vn 0.000000 -0.062214 -0.998063
vn 0.000000 -1.000000 0.000000
vn 0.000000 -1.000000 0.000000
vn 0.000000 -1.000000 0.000000
vn 0.000000 -1.000000 0.000000
vn 0.998092 -0.061738 0.000000
vn 0.998092 -0.061738 0.000000
vn 0.998092 -0.061738 0.000000
vn 0.998092 -0.061738 0.000000
vn -0.998092 -0.061738 0.000000
vn -0.998092 -0.061738 0.000000
vn -0.998092 -0.061738 0.000000
vn -0.998092 -0.061738 0.000000
vn 0.000000 -0.062214 0.998063
vn 0.000000 -0.062214 0.998063
vn 0.000000 -0.062214 0.998063
vn 0.000000 -0.062214 0.998063
vn 0.000000 -0.062214 -0.998063
vn 0.000000 -0.062214 -0.998063
vn 0.000000 -0.062214 -0.998063
vn 0.000000 -0.062214 -0.998063
vn 0.000000 -1.000000 0.000000
vn 0.000000 -1.000000 0.000000
vn 0.000000 -1.000000 0.000000
vn 0.000000 -1.000000 0.000000
vn 0.998092 -0.061738 0.000000
vn 0.998092 -0.061738 0.000000
vn 0.998092 -0.061738 0.000000
vn 0.998092 -0.061738 0.000000
vn -0.998092 -0.061738 0.000000
vn -0.998092 -0.061738 0.000000
vn -0.998092 -0.061738 0.000000
vn -0.998092 -0.061738 0.000000
vn 0.000000 -0.062214 0.998063
vn 0.000000 -0.062214 0.998063
vn 0.000000 -0.062214 0.998063
vn 0.000000 -0.062214 0.998063
vn 0.000000 -0.062214 -0.998063
vn 0.000000 -0.062214 -0.998063
vn 0.000000 -0.062214 -0.998063
vn 0.000000 -0.062214 -0.998063
vn 0.000000 -1.000000 0.000000
vn 0.000000 -1.000000 0.000000
vn 0.000000 -1.000000 0.000000
vn 0.000000 -1.000000 0.000000
vn 0.998092 -0.061738 0.000000
vn 0.998092 -0.061738 0.000000
vn 0.998092 -0.061738 0.000000
vn 0.998092 -0.061738 0.000000
vn -0.998092 -0.061738 0.000000
vn -0.998092 -0.061738 0.000000
vn -0.998092 -0.061738 0.000000
vn -0.998092 -0.061738 0.000000
s off
g polySurface3
usemtl lambert7SG
f 1/1/1 2/2/2 4/3/3 3/4/4
f 5/5/5 6/6/6 8/19/7 7/20/8
f 7/7/9 8/8/10 2/10/11 1/9/12
f 2/11/13 8/12/14 6/13/15 4/14/16
f 7/15/17 1/16/18 3/17/19 5/18/20
f 21/21/21 24/22/22 20/23/23 18/24/24
f 21/25/25 18/26/26 17/27/27 22/28/28
f 16/29/29 15/30/30 11/31/31 12/32/32
f 12/33/33 10/34/34 14/35/35 16/36/36
f 15/37/37 13/38/38 23/39/39 22/40/40
f 17/41/41 19/42/42 9/43/43 11/44/44
f 11/31/45 15/30/46 22/28/47 17/27/48
f 9/45/49 19/46/50 23/47/51 13/48/52
f 9/43/53 10/49/54 12/50/55 11/44/56
f 14/51/57 13/38/58 15/37/59 16/52/60
f 17/41/61 18/53/62 20/54/63 19/42/64
f 21/55/65 22/40/66 23/39/67 24/56/68
f 24/57/69 23/47/70 19/46/71 20/58/72
f 9/45/73 13/48/74 14/59/75 10/60/76
f 25/61/77 26/62/78 28/63/79 27/64/80
f 29/65/81 30/66/82 32/67/83 31/68/84
f 31/69/85 32/70/86 26/71/87 25/72/88
f 26/73/89 32/74/90 30/75/91 28/76/92
f 31/77/93 25/78/94 27/79/95 29/80/96
f 33/81/97 34/82/98 36/83/99 35/84/100
f 37/85/101 38/86/102 40/87/103 39/88/104
f 39/89/105 40/90/106 34/91/107 33/92/108
f 34/93/109 40/94/110 38/95/111 36/96/112
f 39/97/113 33/98/114 35/99/115 37/100/116
f 41/101/117 42/102/118 44/103/119 43/104/120
f 45/105/121 46/106/122 48/107/123 47/108/124
f 47/109/125 48/110/126 42/111/127 41/112/128
f 42/113/129 48/114/130 46/115/131 44/116/132
f 47/117/133 41/118/134 43/119/135 45/120/136
