# This file uses centimeters as units for non-parametric coordinates.

mtllib plant.mtl
g default
v 0.000098 -0.001434 -0.000756
v 1.094445 -0.001435 -0.000755
v -0.301594 1.087641 0.300936
v 1.396137 1.087641 0.300937
v -0.301594 1.087641 -1.396796
v 1.396137 1.087641 -1.396795
v 0.000098 -0.001434 -1.095103
v 1.094445 -0.001435 -1.095101
v -0.202560 1.087641 0.201902
v 1.297102 1.087641 0.201902
v 1.297102 1.087641 -1.297760
v -0.202560 1.087641 -1.297761
v -0.010440 0.885214 0.009782
v 1.104982 0.885213 0.009782
v 1.104982 0.885213 -1.105640
v -0.010440 0.885214 -1.105640
v 0.396728 0.973933 -0.397386
v 0.697815 0.973933 -0.397386
v 0.547271 4.478311 -0.547932
v 0.396728 0.973933 -0.698473
v 0.697815 0.973933 -0.698472
v 0.957511 3.399092 -0.137691
v 0.137032 3.399092 -0.137692
v 0.137032 3.399092 -0.958171
v 0.957511 3.399092 -0.958170
v -0.085893 2.588137 -1.181095
v -0.085893 2.588137 0.085234
v 1.180436 2.588137 0.085235
v 1.180436 2.588137 -1.181095
v 1.303043 1.740904 -1.303700
v -0.208500 1.740904 -1.303701
v -0.208500 1.740904 0.207841
v 1.303043 1.740904 0.207842
v -0.003389 1.252767 -1.098589
v -0.003389 1.252767 0.002731
v 1.097931 1.252767 0.002731
v 1.097931 1.252767 -1.098589
vt 0.861312 0.030369
vt 0.861301 0.288398
vt 0.598176 0.288399
vt 0.598176 0.288399
vt 0.864727 0.631745
vt 0.864727 0.901451
vt 0.595021 0.901451
vt 0.595021 0.631745
vt 0.861301 0.288398
vt 0.934764 0.561388
vt 0.598174 0.288398
vt 0.598157 0.030370
vt 0.935127 0.561344
vt 0.935127 0.971851
vt 0.911181 0.947905
vt 0.911181 0.585291
vt 0.118784 0.525719
vt 0.118607 0.525720
vt 0.433746 0.525724
vt 0.433581 0.525724
vt 0.378328 0.720831
vt 0.378131 0.720837
vt 0.174307 0.720829
vt 0.173949 0.720840
vt 0.314790 0.038072
vt 0.314790 0.113884
vt 0.238979 0.113883
vt 0.238979 0.038072
vt 0.276275 0.977645
vt 0.088183 0.319115
vt 0.464182 0.319115
vt 0.378172 0.720831
vt 0.118562 0.525724
vt 0.433788 0.525720
vt 0.139196 0.193159
vt 0.413161 0.193159
vt 0.174233 0.720840
vt 0.118670 0.525724
vt 0.433687 0.525720
vt 0.378227 0.720837
vt 0.174132 0.720828
vt 0.276176 0.977635
vt 0.088173 0.319115
vt 0.464184 0.319115
vt 0.139197 0.193159
vt 0.413161 0.193159
vt 0.238523 0.114113
vt 0.313835 0.114112
vt 0.118670 0.525724
vt 0.433687 0.525720
vt 0.378227 0.720837
vt 0.174132 0.720828
vt 0.088173 0.319115
vt 0.464184 0.319115
vt 0.139197 0.193159
vt 0.413161 0.193159
vt 0.276122 0.977645
vt 0.088167 0.319115
vt 0.464186 0.319115
vt 0.139197 0.193159
vt 0.413161 0.193159
vt 0.238467 0.114112
vt 0.313901 0.114113
vt 0.276082 0.977636
vt 0.088163 0.319115
vt 0.464187 0.319115
vt 0.139197 0.193159
vt 0.413161 0.193159
vt 0.238426 0.114113
vt 0.313949 0.114112
vt 0.238624 0.114112
vt 0.313716 0.114113
vt 0.524621 0.971851
vt 0.548567 0.947905
vt 0.524620 0.561344
vt 0.548567 0.585291
vt 0.598176 0.288398
vt 0.861301 0.288399
vt 0.934554 0.561382
vt 0.524245 0.561385
vt 0.861301 0.288398
vt 0.934675 0.561386
vt 0.524242 0.561386
vt 0.524241 0.561385
vt 0.598176 0.288398
vt 0.861301 0.288398
vt 0.934942 0.561385
vt 0.524237 0.561385
vn -0.000001 -0.266963 0.963707
vn -0.000001 -0.266963 0.963707
vn -0.000001 -0.266963 0.963707
vn -0.000001 -0.266963 0.963707
vn 0.000000 1.000000 0.000000
vn 0.000000 1.000000 0.000000
vn 0.000000 1.000000 0.000000
vn 0.000000 1.000000 0.000000
vn 0.000001 -0.266964 -0.963706
vn 0.000001 -0.266964 -0.963706
vn 0.000001 -0.266964 -0.963706
vn 0.000001 -0.266964 -0.963707
vn -0.000001 -1.000000 0.000000
vn -0.000001 -1.000000 0.000000
vn -0.000001 -1.000000 0.000000
vn -0.000001 -1.000000 0.000000
vn 0.963707 -0.266963 0.000000
vn 0.963707 -0.266963 0.000000
vn 0.963707 -0.266963 0.000000
vn 0.963707 -0.266963 0.000000
vn -0.963707 -0.266963 0.000000
vn -0.963707 -0.266963 0.000000
vn -0.963707 -0.266963 0.000000
vn -0.963707 -0.266963 0.000000
vn 0.000001 1.000000 -0.000000
vn 0.000000 1.000000 -0.000000
vn 0.000000 1.000000 -0.000000
vn 0.000001 1.000000 -0.000000
vn 0.000000 1.000000 0.000000
vn 0.000000 1.000000 0.000000
vn 0.000001 1.000000 0.000000
vn 0.000001 1.000000 0.000000
vn 0.000000 0.688398 -0.725333
vn 0.000000 0.688398 -0.725333
vn 0.000000 0.688398 -0.725333
vn 0.000000 0.688398 -0.725333
vn -0.725332 0.688399 0.000000
vn -0.725332 0.688399 0.000000
vn -0.725332 0.688399 0.000000
vn -0.725332 0.688399 0.000000
vn 0.000000 0.688399 0.725333
vn 0.000000 0.688399 0.725333
vn 0.000000 0.688399 0.725333
vn 0.000000 0.688399 0.725333
vn 0.725332 0.688399 0.000000
vn 0.725332 0.688399 0.000000
vn 0.725332 0.688399 0.000000
vn 0.725332 0.688399 0.000000
vn -0.682657 0.260691 0.682657
vn 0.682656 0.260691 0.682657
vn 0.650194 0.393060 0.650194
vn -0.650194 0.393060 0.650194
vn -0.650194 0.393059 -0.650194
vn 0.650194 0.393059 -0.650194
vn 0.682657 0.260690 -0.682657
vn -0.682657 0.260690 -0.682657
vn -0.286393 -0.914308 -0.286393
vn 0.286393 -0.914308 -0.286393
vn 0.286393 -0.914308 0.286393
vn -0.286393 -0.914308 0.286393
vn -0.000000 1.000000 -0.000001
vn -0.706378 -0.045385 -0.706378
vn -0.706378 -0.045384 0.706378
vn 0.706378 -0.045384 0.706378
vn 0.706379 -0.045385 -0.706378
vn 0.560241 -0.610132 -0.560240
vn -0.560241 -0.610132 -0.560240
vn -0.560241 -0.610132 0.560241
vn 0.560241 -0.610132 0.560241
s off
g polySurface1
usemtl initialShadingGroup
f 1/77/1 2/78/2 4/79/3 3/80/4
f 13/5/5 14/6/6 15/7/7 16/8/8
f 5/10/9 6/84/10 8/85/11 7/86/12
f 7/1/13 8/2/14 2/11/15 1/12/16
f 2/3/17 8/81/18 6/82/19 4/83/20
f 7/4/21 1/9/22 3/87/23 5/88/24
s 1
f 3/13/25 4/14/26 10/15/27 9/16/28
f 4/14/26 6/73/29 11/74/30 10/15/27
f 6/73/29 5/75/31 12/76/32 11/74/30
f 5/75/31 3/13/25 9/16/28 12/76/32
s off
f 9/16/33 10/15/34 14/6/35 13/5/36
f 10/15/37 11/74/38 15/7/39 14/6/40
f 11/74/41 12/76/42 16/8/43 15/7/44
f 12/76/45 9/16/46 13/5/47 16/8/48
s 2
f 27/49/49 28/50/50 22/51/51 23/52/52
f 24/22/53 25/23/54 29/33/55 26/34/56
f 20/25/57 21/26/58 18/27/59 17/28/60
f 28/18/50 29/19/55 25/32/54 22/37/51
f 26/17/56 27/20/49 23/21/52 24/24/53
f 23/41/52 22/40/51 19/42/61
f 24/24/53 23/21/52 19/29/61
f 19/64/61 25/23/54 24/22/53
f 22/37/51 25/32/54 19/57/61
f 31/30/62 32/31/63 27/20/49 26/17/56
f 32/53/63 33/54/64 28/39/50 27/38/49
f 33/58/64 30/59/65 29/19/55 28/18/50
f 26/34/56 29/33/55 30/65/65 31/66/62
f 31/66/62 30/65/65 37/67/66 34/68/67
f 34/35/67 35/36/68 32/31/63 31/30/62
f 35/55/68 36/56/69 33/44/64 32/43/63
f 36/60/69 37/61/66 30/59/65 33/58/64
f 20/71/57 17/72/60 35/36/68 34/35/67
f 17/47/60 18/48/59 36/46/69 35/45/68
f 18/62/59 21/63/58 37/61/66 36/60/69
f 34/68/67 37/67/66 21/69/58 20/70/57
